<svg width="209" height="207" viewBox="0 0 209 207" fill="none" xmlns="http://www.w3.org/2000/svg">
<g clip-path="url(#clip0_1_692)" filter="url(#filter0_f_1_692)">
<path d="M100.309 28.7825L33.0765 80.4888C23.8479 87.5863 22.1203 100.821 29.2177 110.05L78.9889 174.766C86.0863 183.994 99.3211 185.722 108.55 178.625L175.782 126.918C185.011 119.821 186.738 106.586 179.641 97.3574L129.87 32.6413C122.772 23.4127 109.538 21.685 100.309 28.7825Z" fill="#330000"/>
<path d="M110.434 114.722L94.8371 126.717L99.2449 139.016C99.34 139.229 99.3578 139.469 99.2952 139.693C99.2326 139.918 99.0936 140.114 98.9021 140.247L91.002 146.323C90.5519 146.669 90.2037 146.543 89.958 145.943L73.5518 96.6657C73.3752 96.157 73.1557 95.5918 72.8924 94.9703C72.3763 93.9331 71.7627 92.9482 71.0595 92.0281C71.0009 91.9709 70.9564 91.9009 70.9296 91.8236C70.9027 91.7463 70.8942 91.6638 70.9048 91.5826C70.9154 91.5015 70.9447 91.4239 70.9904 91.356C71.0361 91.2882 71.097 91.2319 71.1683 91.1916L81.9042 82.9349C82.2188 82.693 82.4856 82.6674 82.7045 82.8576L131.265 114.283C131.747 114.629 131.785 114.959 131.38 115.27L122.602 122.021C122.464 122.153 122.282 122.231 122.091 122.24C121.9 122.248 121.712 122.187 121.563 122.067L110.434 114.722ZM90.7249 116.341L101.393 108.136L100.855 107.751L99.9994 107.144L99.3958 106.719L98.4417 106.054L96.4275 104.658L94.6459 103.417L90.0093 100.181C88.8563 99.3771 87.7136 98.5584 86.5814 97.7253L85.6662 97.0463L84.5875 96.2409L82.9225 94.9872L82.6092 94.7507L82.542 94.8024C83.4506 96.6829 84.2732 98.6038 85.0071 100.559L86.4836 104.552L87.3015 106.756L88.1313 108.986C88.281 109.389 88.4288 109.788 88.5731 110.183L88.9994 111.356L89.4103 112.505L89.8053 113.631L90.1846 114.733C90.3087 115.096 90.4298 115.455 90.5486 115.81L90.7249 116.341ZM112.39 70.8795C111.723 71.4368 110.946 71.8469 110.109 72.0831C109.272 72.3193 108.395 72.3762 107.535 72.2501C106.659 72.1015 105.822 71.7813 105.07 71.308C104.319 70.8347 103.668 70.2175 103.156 69.492C102.597 68.8145 102.186 68.0266 101.951 67.1796C101.716 66.3327 101.663 65.4457 101.794 64.5767C102.048 62.9009 102.938 61.3876 104.28 60.3518L104.425 60.2427C106.045 58.9963 107.689 58.5017 109.356 58.7601C110.209 58.9048 111.025 59.2163 111.757 59.6767C112.489 60.1371 113.123 60.7373 113.622 61.443C114.194 62.1274 114.622 62.9196 114.881 63.7726C115.14 64.6256 115.225 65.522 115.131 66.4085C115.012 67.2723 114.721 68.1034 114.276 68.8531C113.831 69.6027 113.24 70.2558 112.539 70.7737L112.39 70.8795ZM135.721 110.856L110.899 78.5816C110.588 78.1766 110.611 77.8358 110.972 77.5582L119.277 71.1708C119.637 70.8942 119.973 70.9582 120.285 71.3632L145.106 103.638C145.453 104.089 145.446 104.452 145.086 104.729L136.848 111.064C136.464 111.359 136.107 111.313 135.776 110.924L135.721 110.856Z" fill="#FF2900"/>
</g>
<defs>
<filter id="filter0_f_1_692" x="-7.63477" y="-8.0697" width="224.25" height="223.704" filterUnits="userSpaceOnUse" color-interpolation-filters="sRGB">
<feFlood flood-opacity="0" result="BackgroundImageFix"/>
<feBlend mode="normal" in="SourceGraphic" in2="BackgroundImageFix" result="shape"/>
<feGaussianBlur stdDeviation="12" result="effect1_foregroundBlur_1_692"/>
</filter>
<clipPath id="clip0_1_692">
<rect width="126.98" height="124" fill="white" transform="translate(16.3652 93.3411) rotate(-37.5628)"/>
</clipPath>
</defs>
</svg>
