<svg width="207" height="207" viewBox="0 0 207 207" fill="none" xmlns="http://www.w3.org/2000/svg">
<g clip-path="url(#clip0_1_711)" filter="url(#filter0_f_1_711)">
<path d="M33.2357 129.259L102.378 178.383C111.869 185.125 125.029 182.898 131.771 173.407L179.056 106.853C185.799 97.3618 183.571 84.2019 174.081 77.459L104.938 28.3358C95.4477 21.5929 82.2877 23.8205 75.5449 33.3113L28.2602 99.8658C21.5173 109.357 23.745 122.516 33.2357 129.259Z" fill="#001E36"/>
<path d="M146.537 103.258L115.012 147.63C114.782 147.953 114.528 148.017 114.25 147.82L113.81 147.509L113.053 146.983L111.994 146.262L108.444 143.851L104.644 141.256C103.309 140.342 101.993 139.425 100.697 138.504C97.1789 136.005 94.5288 133.46 92.7458 130.87C91.0958 128.592 89.9744 125.975 89.4634 123.209C89.052 120.834 89.1607 118.398 89.7822 116.069C90.4056 113.815 91.4207 111.689 92.781 109.788C95.4127 106.084 98.4401 103.637 101.863 102.448C105.206 101.29 108.819 101.155 112.239 102.059L112.531 102.138C116.098 103.09 119.49 104.928 122.932 107.337L123.465 107.713L124.252 108.278L124.646 108.567L125.082 108.893L125.343 109.094L125.499 109.218L125.889 109.516L126.37 109.874L127.102 110.402L127.266 110.519L137.109 96.6647C137.157 96.5711 137.226 96.4901 137.311 96.4279C137.396 96.3658 137.494 96.3243 137.598 96.3067C137.702 96.2892 137.808 96.296 137.909 96.3267C138.01 96.3575 138.102 96.4112 138.178 96.4837L146.445 102.357C146.77 102.588 146.8 102.887 146.537 103.258ZM111.208 133.12L121.49 118.648C120.968 118.209 120.428 117.791 119.873 117.395L117.582 115.766C115.998 114.649 114.26 113.768 112.422 113.151L112.054 113.031C110.388 112.463 108.593 112.385 106.884 112.807C105.285 113.215 103.829 114.309 102.518 116.089L102.372 116.289C101.382 117.606 100.789 119.18 100.666 120.824C100.605 122.455 101.049 124.065 101.935 125.435C103.104 127.209 104.618 128.729 106.388 129.904L107.27 130.527L107.829 130.917L108.364 131.287L109.123 131.804L109.679 132.176L109.97 132.367L110.362 132.618L110.699 132.828L110.893 132.944L111.063 133.042L111.138 133.083L111.208 133.12ZM69.5104 85.6776C70.2795 87.1607 71.2321 88.5412 72.3459 89.7864L72.6061 90.071C73.8289 91.4444 75.1893 92.6887 76.6659 93.7847L77.0372 94.0552C77.8989 94.7032 78.851 95.2212 79.8632 95.5926C80.4883 95.8562 81.1867 95.8897 81.8342 95.6873C82.3107 95.4958 82.7223 95.1716 83.02 94.7531C83.2957 94.3381 83.4267 93.8436 83.3926 93.3465C83.3303 92.6536 83.1438 91.9777 82.8421 91.3509L82.7483 91.1644C82.137 89.9279 81.4545 88.7279 80.7043 87.5705C78.9281 85.1346 77.4551 82.4916 76.3178 79.6997C75.5383 77.804 75.2421 75.7442 75.4558 73.7057C75.7451 71.8375 76.4829 70.0673 77.6061 68.5466C79.0103 66.4822 81.0121 64.8963 83.3431 64.0017C85.7716 63.1382 88.3971 62.9908 90.907 63.5772C93.5797 64.1289 96.4093 65.4438 99.3963 67.5203L99.7055 67.7376C101.557 69.0251 103.279 70.4902 104.846 72.1122L105.179 72.4621C106.502 73.8221 107.652 75.3408 108.601 76.9836C108.691 77.1571 108.733 77.3512 108.723 77.5461C108.713 77.741 108.651 77.9298 108.544 78.0932L103.167 85.6616C103.123 85.741 103.059 85.807 102.98 85.8525C102.902 85.898 102.812 85.9214 102.722 85.9202C102.638 85.9115 102.559 85.8776 102.496 85.8229C102.432 85.7683 102.386 85.6955 102.365 85.6142C101.4 83.4543 100.103 81.4582 98.5229 79.6977C97.1599 78.1037 95.616 76.6736 93.9225 75.4363C92.3027 74.2855 90.9625 73.6473 89.9024 73.5208C89.4451 73.4336 88.9723 73.4808 88.5413 73.6567C88.1103 73.8327 87.7395 74.1298 87.4739 74.5121C87.047 75.1129 86.9829 75.9387 87.2822 76.9879C87.4078 77.4276 87.6454 77.9779 87.9944 78.6377L88.1636 78.9502L88.3482 79.2779L88.4466 79.4476L88.6555 79.7993C88.692 79.8599 88.7287 79.9205 88.7656 79.9809L88.9983 80.3556L89.1207 80.549L89.377 80.9471L89.5113 81.152L89.7912 81.5742L90.0872 82.0114C91.7284 84.3194 93.049 86.8393 94.0127 89.5023C94.6993 91.4106 94.9299 93.4531 94.6861 95.4664C94.3969 97.3199 93.6679 99.0771 92.5603 100.591C91.2588 102.431 89.4736 103.875 87.4022 104.763C85.0838 105.714 82.5398 105.975 80.0767 105.514C77.317 105.085 74.4093 103.786 71.3531 101.615C69.5532 100.358 67.8561 98.9603 66.2776 97.4345C65.1118 96.3617 64.0998 95.1329 63.2705 93.7831C63.1183 93.5922 63.0645 93.3416 63.1255 93.1051C63.1986 92.9021 63.2999 92.7106 63.426 92.5349L68.4087 85.5216C68.5163 85.3486 68.7089 85.2463 68.9128 85.2531C69.0384 85.2729 69.1578 85.3215 69.2615 85.3952C69.3651 85.4688 69.4504 85.5655 69.5104 85.6776Z" fill="#31A8FF"/>
</g>
<defs>
<filter id="filter0_f_1_711" x="-7.95068" y="-8.03601" width="223.332" height="222.629" filterUnits="userSpaceOnUse" color-interpolation-filters="sRGB">
<feFlood flood-opacity="0" result="BackgroundImageFix"/>
<feBlend mode="normal" in="SourceGraphic" in2="BackgroundImageFix" result="shape"/>
<feGaussianBlur stdDeviation="12" result="effect1_foregroundBlur_1_711"/>
</filter>
<clipPath id="clip0_1_711">
<rect width="126.98" height="124" fill="white" transform="translate(119.564 190.593) rotate(-144.608)"/>
</clipPath>
</defs>
</svg>
