<svg width="155" height="170" viewBox="0 0 155 170" fill="none" xmlns="http://www.w3.org/2000/svg">
<g clip-path="url(#clip0_1_701)" filter="url(#filter0_f_1_701)">
<path d="M38.8845 144.156C49.758 147.607 61.3837 141.583 64.8346 130.709L71.0863 111.011L51.3879 104.759C40.5143 101.308 28.8887 107.332 25.4378 118.206C21.9868 129.08 28.011 140.705 38.8845 144.156Z" fill="#0ACF83"/>
<path d="M37.9412 78.8091C41.3921 67.9356 53.0178 61.9115 63.8913 65.3624L83.5897 71.6141L71.0863 111.011L51.3879 104.759C40.5144 101.308 34.4903 89.6827 37.9412 78.8091Z" fill="#A259FF"/>
<path d="M50.4446 39.4123C53.8955 28.5388 65.5212 22.5146 76.3947 25.9655L96.0931 32.2172L83.5898 71.6141L63.8913 65.3624C53.0178 61.9115 46.9937 50.2858 50.4446 39.4123Z" fill="#F24E1E"/>
<path d="M96.0933 32.2173L115.792 38.469C126.665 41.9199 132.689 53.5455 129.238 64.4191C125.787 75.2926 114.162 81.3167 103.288 77.8658L83.5899 71.6141L96.0933 32.2173Z" fill="#FF7262"/>
<path d="M116.735 103.816C113.284 114.689 101.658 120.714 90.7849 117.263C79.9114 113.812 73.8872 102.186 77.3382 91.3126C80.7891 80.439 92.4147 74.4149 103.288 77.8658C114.162 81.3167 120.186 92.9424 116.735 103.816Z" fill="#1ABCFE"/>
</g>
<defs>
<filter id="filter0_f_1_701" x="-4.81543" y="-4.28662" width="164.307" height="191.198" filterUnits="userSpaceOnUse" color-interpolation-filters="sRGB">
<feFlood flood-opacity="0" result="BackgroundImageFix"/>
<feBlend mode="normal" in="SourceGraphic" in2="BackgroundImageFix" result="shape"/>
<feGaussianBlur stdDeviation="12" result="effect1_foregroundBlur_1_701"/>
</filter>
<clipPath id="clip0_1_701">
<rect width="82.67" height="124" fill="white" transform="translate(56.6948 19.7134) rotate(17.6079)"/>
</clipPath>
</defs>
</svg>
