<svg width="190" height="189" viewBox="0 0 190 189" fill="none" xmlns="http://www.w3.org/2000/svg">
<g clip-path="url(#clip0_1_707)" filter="url(#filter0_f_1_707)">
<path d="M108.386 25.7989L45.4251 45.1766C30.0845 49.8981 21.4759 66.1616 26.1974 81.5023L45.5751 144.463C50.2966 159.803 66.5601 168.412 81.9008 163.69L144.861 144.313C160.202 139.591 168.81 123.328 164.089 107.987L144.711 45.0266C139.99 29.686 123.726 21.0775 108.386 25.7989Z" fill="#4353FF"/>
<path d="M110.672 77.5161C110.672 77.5161 110.444 99.5217 110.495 101.369C109.792 99.7568 94.046 65.1813 94.046 65.1813C83.145 68.5363 79.7333 78.0706 79.1667 87.2128C79.1667 87.2128 77.5714 109.708 77.4553 111.572C76.9389 110.006 69.616 90.3591 69.616 90.3591C65.8606 80.5123 54.8211 77.2537 47.3862 79.542L73.1188 131.324C84.5138 127.782 88.2819 118.173 88.9644 108.961C88.9644 108.961 90.3419 89.1191 90.3833 88.2442C90.679 88.9809 105.916 121.23 105.916 121.23C117.352 117.71 121.307 108.595 122.181 99.6688L126.087 55.3199C114.776 58.801 111.197 68.3523 110.672 77.5161Z" fill="white"/>
</g>
<defs>
<filter id="filter0_f_1_707" x="-6.35156" y="-6.75" width="202.989" height="202.989" filterUnits="userSpaceOnUse" color-interpolation-filters="sRGB">
<feFlood flood-opacity="0" result="BackgroundImageFix"/>
<feBlend mode="normal" in="SourceGraphic" in2="BackgroundImageFix" result="shape"/>
<feGaussianBlur stdDeviation="12" result="effect1_foregroundBlur_1_707"/>
</filter>
<clipPath id="clip0_1_707">
<rect width="124" height="124" fill="white" transform="translate(17.6484 53.7256) rotate(-17.1071)"/>
</clipPath>
</defs>
</svg>
