<svg width="25" height="25" viewBox="0 0 25 25" fill="none" xmlns="http://www.w3.org/2000/svg">
<path d="M12.2217 24.8748C18.8491 24.8748 24.2217 19.5022 24.2217 12.8748C24.2217 6.24734 18.8491 0.874756 12.2217 0.874756C5.59426 0.874756 0.22168 6.24734 0.22168 12.8748C0.22168 19.5022 5.59426 24.8748 12.2217 24.8748Z" fill="#007AB9"/>
<path d="M19.3914 13.8403V18.7877H16.5231V14.1719C16.5231 13.0129 16.109 12.2215 15.0704 12.2215C14.2779 12.2215 13.8071 12.7543 13.5992 13.2703C13.5236 13.4547 13.5042 13.7107 13.5042 13.9693V18.7875H10.6356C10.6356 18.7875 10.6741 10.9699 10.6356 10.1606H13.5044V11.3831C13.4986 11.3928 13.4905 11.4022 13.4854 11.4114H13.5044V11.3831C13.8856 10.7966 14.5654 9.95806 16.0895 9.95806C17.9766 9.95806 19.3914 11.191 19.3914 13.8403ZM7.63488 6.0022C6.65367 6.0022 6.01172 6.64628 6.01172 7.49252C6.01172 8.32078 6.63506 8.98348 7.59723 8.98348H7.61584C8.6163 8.98348 9.23836 8.32078 9.23836 7.49252C9.21932 6.64628 8.6163 6.0022 7.63488 6.0022ZM6.18221 18.7877H9.04969V10.1606H6.18221V18.7877Z" fill="#F1F2F2"/>
</svg>
