<svg width="18" height="18" viewBox="0 0 18 18" fill="none" xmlns="http://www.w3.org/2000/svg">
<path fill-rule="evenodd" clip-rule="evenodd" d="M6.75037 6.59787H10.0001V8.21662C10.4682 7.28562 11.6687 6.44912 13.4721 6.44912C16.9292 6.44912 17.75 8.30237 17.75 11.7026V18H14.25V12.477C14.25 10.5406 13.7819 9.44862 12.5901 9.44862C10.9372 9.44862 10.2504 10.6255 10.2504 12.4761V18H6.75037V6.59787ZM0.74875 17.8512H4.24875V6.44912H0.74875V17.8512ZM4.75012 2.73125C4.75025 3.02462 4.69207 3.31508 4.57896 3.58576C4.46585 3.85645 4.30007 4.10195 4.09125 4.308C3.6681 4.72855 3.09533 4.96395 2.49875 4.9625C1.90322 4.9621 1.33177 4.7273 0.908 4.30888C0.699935 4.10212 0.534713 3.85635 0.421801 3.58563C0.308889 3.31491 0.250507 3.02457 0.25 2.73125C0.25 2.13888 0.48625 1.57187 0.908875 1.15363C1.33227 0.734639 1.90396 0.499738 2.49962 0.5C3.09637 0.5 3.66862 0.735375 4.09125 1.15363C4.513 1.57187 4.75012 2.13888 4.75012 2.73125Z" fill="#99E6FC"/>
</svg>
