<svg width="25" height="25" viewBox="0 0 25 25" fill="none" xmlns="http://www.w3.org/2000/svg">
<path d="M9.87986 10.3838C9.87986 9.25171 9.10965 9.25171 9.10965 9.25171H5.94092V11.6809H8.91324C9.42687 11.6807 9.87986 11.5164 9.87986 10.3838ZM9.1099 13.3588H5.94092V16.2683H8.96357C9.41828 16.2553 10.2575 16.1129 10.2575 14.8541C10.2575 13.3436 9.1099 13.3588 9.1099 13.3588ZM17.2225 11.6807C15.5409 11.6807 15.3064 13.3588 15.3064 13.3588H18.8825C18.8827 13.3588 18.9041 11.6807 17.2225 11.6807Z" fill="#007AB9"/>
<path d="M12.2217 0.875C5.59424 0.875 0.22168 6.24781 0.22168 12.875C0.22168 19.5022 5.59424 24.875 12.2217 24.875C18.8491 24.875 24.2217 19.5022 24.2217 12.875C24.2217 6.24781 18.8491 0.875 12.2217 0.875ZM14.838 7.95788H19.3296V9.29845H14.838V7.95788ZM12.5679 14.9892C12.5679 18.3119 9.10991 18.2026 9.10991 18.2026H3.44492V7.31658H9.10966C10.8313 7.31658 12.1903 8.267 12.1903 10.215C12.1903 12.1632 10.529 12.2867 10.529 12.2867C12.7189 12.2867 12.5679 14.9892 12.5679 14.9892ZM17.2439 16.7062C19.0534 16.7062 18.9893 15.535 18.9893 15.535H20.9051C20.9051 18.6431 17.18 18.4302 17.18 18.4302C12.7098 18.4302 12.9973 14.2686 12.9973 14.2686C12.9973 14.2686 12.9939 10.0863 17.1796 10.0863C21.586 10.0863 20.969 14.8115 20.969 14.8115H15.3281C15.3281 16.8343 17.2439 16.7062 17.2439 16.7062Z" fill="#007AB9"/>
</svg>
