<svg width="8" height="14" viewBox="0 0 8 14" fill="none" xmlns="http://www.w3.org/2000/svg">
<path d="M0.747253 13.2518C0.580587 13.0851 0.497253 12.8878 0.497253 12.6598C0.497253 12.4318 0.580587 12.2347 0.747253 12.0685L5.63059 7.18514L0.730587 2.28514C0.575031 2.12958 0.497253 1.93514 0.497253 1.70181C0.497253 1.46847 0.580587 1.26847 0.747253 1.10181C0.91392 0.93514 1.11125 0.851807 1.33925 0.851807C1.56725 0.851807 1.76436 0.93514 1.93059 1.10181L7.53059 6.71847C7.59725 6.78514 7.64459 6.85736 7.67259 6.93514C7.70059 7.01292 7.71437 7.09625 7.71392 7.18514C7.71392 7.27403 7.69992 7.35736 7.67192 7.43514C7.64392 7.51292 7.59681 7.58514 7.53059 7.65181L1.91392 13.2685C1.75836 13.424 1.56659 13.5018 1.33859 13.5018C1.11059 13.5018 0.913476 13.4185 0.747253 13.2518Z" fill="black"/>
</svg>
