<svg width="25" height="25" viewBox="0 0 25 25" fill="none" xmlns="http://www.w3.org/2000/svg">
<path d="M10.6118 9.5333C10.6118 8.40118 9.84159 8.40118 9.84159 8.40118H6.67285V10.8304H9.64517C10.1588 10.8302 10.6118 10.6659 10.6118 9.5333ZM9.84183 12.5083H6.67285V15.4178H9.6955C10.1502 15.4048 10.9894 15.2624 10.9894 14.0036C10.9894 12.4931 9.84183 12.5083 9.84183 12.5083ZM17.9544 10.8302C16.2729 10.8302 16.0384 12.5083 16.0384 12.5083H19.6144C19.6147 12.5083 19.636 10.8302 17.9544 10.8302Z" fill="#316BFF"/>
<path d="M12.9536 0.0243835C6.32618 0.0243835 0.953613 5.39719 0.953613 12.0244C0.953613 18.6516 6.32618 24.0244 12.9536 24.0244C19.5811 24.0244 24.9536 18.6516 24.9536 12.0244C24.9536 5.39719 19.5811 0.0243835 12.9536 0.0243835ZM15.5699 7.10727H20.0615V8.44783H15.5699V7.10727ZM13.2998 14.1386C13.2998 17.4613 9.84184 17.352 9.84184 17.352H4.17686V6.46596H9.84159C11.5632 6.46596 12.9222 7.41638 12.9222 9.36437C12.9222 11.3126 11.261 11.4361 11.261 11.4361C13.4508 11.4361 13.2998 14.1386 13.2998 14.1386ZM17.9758 15.8555C19.7853 15.8555 19.7212 14.6844 19.7212 14.6844H21.6371C21.6371 17.7925 17.912 17.5796 17.912 17.5796C13.4417 17.5796 13.7292 13.418 13.7292 13.418C13.7292 13.418 13.7258 9.23572 17.9115 9.23572C22.3179 9.23572 21.7009 13.9608 21.7009 13.9608H16.06C16.06 15.9837 17.9758 15.8555 17.9758 15.8555Z" fill="#316BFF"/>
</svg>
