<svg width="25" height="17" viewBox="0 0 25 17" fill="none" xmlns="http://www.w3.org/2000/svg">
<path d="M10.1864 7.41118C10.1864 7.41118 12.4568 7.23478 12.4568 4.46038C12.4568 1.68238 10.5992 0.331177 8.2448 0.331177H0.5V15.8424H8.2448C8.2448 15.8424 12.974 15.9972 12.974 11.2632C12.974 11.2632 13.1792 7.41118 10.1864 7.41118ZM3.9128 3.08638H8.2448C8.2448 3.08638 9.2984 3.08638 9.2984 4.69918C9.2984 6.31438 8.6792 6.54838 7.976 6.54838H3.9128V3.08638ZM8.0252 13.0848H3.9128V8.93878H8.2448C8.2448 8.93878 9.8144 8.91718 9.8144 11.0688C9.8144 12.8832 8.642 13.0716 8.0252 13.0848ZM19.2788 4.27558C13.5536 4.27558 13.5584 10.236 13.5584 10.236C13.5584 10.236 13.1672 16.1652 19.2788 16.1652C19.2788 16.1652 24.3704 16.47 24.3704 12.0408H21.752C21.752 12.0408 21.8384 13.71 19.3664 13.71C19.3664 13.71 16.7456 13.8924 16.7456 11.01H24.4532C24.4532 11.01 25.304 4.27558 19.2788 4.27558ZM21.608 8.93878H16.7192C16.7192 8.93878 17.0384 6.54838 19.3376 6.54838C21.6368 6.54838 21.608 8.93878 21.608 8.93878ZM22.2164 1.24198H16.076V3.15478H22.2164V1.24198Z" fill="#312FB4"/>
</svg>
