<svg width="25" height="25" viewBox="0 0 25 25" fill="none" xmlns="http://www.w3.org/2000/svg">
<path d="M12.9536 24.0241C19.581 24.0241 24.9536 18.6515 24.9536 12.0241C24.9536 5.39669 19.581 0.0241089 12.9536 0.0241089C6.3262 0.0241089 0.953613 5.39669 0.953613 12.0241C0.953613 18.6515 6.3262 24.0241 12.9536 24.0241Z" fill="#316BFF"/>
<path d="M20.1234 12.9898V17.9371H17.255V13.3213C17.255 12.1624 16.8409 11.3709 15.8024 11.3709C15.0098 11.3709 14.539 11.9038 14.3311 12.4197C14.2556 12.6041 14.2361 12.8602 14.2361 13.1188V17.9369H11.3676C11.3676 17.9369 11.4061 10.1193 11.3676 9.31008H14.2363V10.5326C14.2306 10.5422 14.2224 10.5516 14.2173 10.5608H14.2363V10.5326C14.6175 9.94604 15.2973 9.10751 16.8214 9.10751C18.7086 9.10751 20.1234 10.3405 20.1234 12.9898ZM8.36681 5.15164C7.3856 5.15164 6.74365 5.79573 6.74365 6.64196C6.74365 7.47023 7.36699 8.13292 8.32916 8.13292H8.34777C9.34824 8.13292 9.97029 7.47023 9.97029 6.64196C9.95125 5.79573 9.34824 5.15164 8.36681 5.15164ZM6.91414 17.9371H9.78162V9.31008H6.91414V17.9371Z" fill="white"/>
</svg>
