<svg width="73" height="79" viewBox="0 0 73 79" fill="none" xmlns="http://www.w3.org/2000/svg">
<path d="M18.7085 9.8076H20.9585V12.0576H18.7085V9.8076Z" fill="url(#paint0_linear_25_1069)"/>
<path d="M14.2085 9.8076H16.4585V12.0576H14.2085V9.8076Z" fill="url(#paint1_linear_25_1069)"/>
<path d="M9.7085 9.8076H11.9585V12.0576H9.7085V9.8076Z" fill="url(#paint2_linear_25_1069)"/>
<path d="M62.5835 5.3076H10.8335C6.446 5.3076 2.9585 8.7951 2.9585 13.1826V51.4326C2.9585 55.8201 6.446 59.3076 10.8335 59.3076V57.0576C7.6835 57.0576 5.2085 54.5826 5.2085 51.4326V16.5576H65.9585V14.3076H5.2085V13.1826C5.2085 10.0326 7.6835 7.5576 10.8335 7.5576H62.5835C65.7335 7.5576 68.2085 10.0326 68.2085 13.1826V51.4326C68.2085 54.5826 65.7335 57.0576 62.5835 57.0576V59.3076C66.971 59.3076 70.4585 55.8201 70.4585 51.4326V13.1826C70.4585 8.7951 66.971 5.3076 62.5835 5.3076Z" fill="url(#paint3_linear_25_1069)"/>
<path d="M23.2085 9.8076H38.9585V12.0576H23.2085V9.8076Z" fill="url(#paint4_linear_25_1069)"/>
<path d="M40.0835 18.8076H33.3335C30.8585 18.8076 28.8335 20.8326 28.8335 23.3076V68.3076C28.8335 70.7826 30.8585 72.8076 33.3335 72.8076H40.0835C42.5585 72.8076 44.5835 70.7826 44.5835 68.3076V23.3076C44.5835 20.8326 42.5585 18.8076 40.0835 18.8076ZM42.3335 24.4326H37.8335V26.6826H42.3335V28.9326H40.0835V31.1826H42.3335V33.4326H40.0835V35.6826H42.3335V37.9326H37.8335V40.1826H42.3335V42.4326H40.0835V44.6826H42.3335V46.9326H40.0835V49.1826H42.3335V51.4326H37.8335V53.6826H42.3335V55.9326H40.0835V58.1826H42.3335V60.4326H40.0835V62.6826H42.3335V64.9326H37.8335V67.1826H42.3335V68.3076C42.3335 69.5451 41.321 70.5576 40.0835 70.5576H33.3335C32.096 70.5576 31.0835 69.5451 31.0835 68.3076V23.3076C31.0835 22.0701 32.096 21.0576 33.3335 21.0576H40.0835C41.321 21.0576 42.3335 22.0701 42.3335 23.3076V24.4326Z" fill="url(#paint5_linear_25_1069)"/>
<path d="M24.221 31.8576L19.721 21.7326C19.496 21.1701 18.821 20.9451 18.2585 21.1701C18.0335 21.2826 17.8085 21.5076 17.696 21.7326L13.196 31.8576C13.1246 31.997 13.0861 32.151 13.0835 32.3076V69.4326C13.0835 71.3451 14.546 72.8076 16.4585 72.8076H20.9585C22.871 72.8076 24.3335 71.3451 24.3335 69.4326V32.3076C24.3335 32.1951 24.302 32.0064 24.221 31.8576ZM18.7085 24.9951L21.521 31.1826H16.0085L18.7085 24.9951ZM22.0835 69.4326C22.0835 70.1076 21.6335 70.5576 20.9585 70.5576H16.4585C15.7835 70.5576 15.3335 70.1076 15.3335 69.4326V66.0576H22.0835V69.4326ZM22.0835 63.8076H19.8335V35.6826H17.5835V63.8076H15.3335V33.4326H22.0835V63.8076Z" fill="url(#paint6_linear_25_1069)"/>
<path d="M61.121 23.7576C60.3335 21.8451 60.221 21.2826 61.121 20.3826C61.4585 20.0451 61.571 19.5951 61.346 19.1451C61.121 18.6951 60.7835 18.4701 60.3335 18.4701C52.9085 18.4701 49.0835 24.6576 49.0835 30.8451C49.0835 32.1951 49.5335 33.5451 50.2085 34.5576L51.3335 70.2201C51.3335 70.5576 51.446 70.7826 51.671 71.0076C51.7835 71.1201 53.471 72.6951 55.8335 72.6951C58.196 72.6951 59.8835 71.0076 59.996 71.0076C60.221 70.7826 60.3335 70.5576 60.3335 70.2201L61.6835 34.1076C62.246 33.0951 62.5835 31.9701 62.5835 30.8451C62.5835 27.5826 61.6835 25.4451 61.121 23.7576ZM58.0835 69.7701C57.6335 70.1076 56.846 70.5576 55.8335 70.5576C54.821 70.5576 54.0335 70.1076 53.5835 69.7701L52.571 36.8076C53.5835 37.3701 54.7085 37.7076 55.8335 37.7076C57.1835 37.7076 58.3085 37.3701 59.4335 36.6951L58.0835 69.7701ZM55.8335 35.4576C53.3585 35.4576 51.3335 33.4326 51.3335 30.9576C51.3335 27.3576 53.246 22.1826 58.3085 21.0576C58.0835 22.2951 58.5335 23.4201 58.9835 24.6576C59.546 26.2326 60.3335 28.1451 60.3335 30.9576C60.3335 33.4326 58.3085 35.4576 55.8335 35.4576Z" fill="url(#paint7_linear_25_1069)"/>
<defs>
<linearGradient id="paint0_linear_25_1069" x1="8.90975" y1="0.00885187" x2="71.3664" y2="62.4655" gradientUnits="userSpaceOnUse">
<stop stop-color="#FF35D8"/>
<stop offset="0.061" stop-color="#EA34D4"/>
<stop offset="0.247" stop-color="#B133CA"/>
<stop offset="0.427" stop-color="#8131C2"/>
<stop offset="0.597" stop-color="#5C30BB"/>
<stop offset="0.753" stop-color="#4130B7"/>
<stop offset="0.893" stop-color="#312FB4"/>
<stop offset="1" stop-color="#2B2FB3"/>
</linearGradient>
<linearGradient id="paint1_linear_25_1069" x1="6.65975" y1="2.25885" x2="69.1164" y2="64.7155" gradientUnits="userSpaceOnUse">
<stop stop-color="#FF35D8"/>
<stop offset="0.061" stop-color="#EA34D4"/>
<stop offset="0.247" stop-color="#B133CA"/>
<stop offset="0.427" stop-color="#8131C2"/>
<stop offset="0.597" stop-color="#5C30BB"/>
<stop offset="0.753" stop-color="#4130B7"/>
<stop offset="0.893" stop-color="#312FB4"/>
<stop offset="1" stop-color="#2B2FB3"/>
</linearGradient>
<linearGradient id="paint2_linear_25_1069" x1="4.40975" y1="4.50885" x2="66.8664" y2="66.9655" gradientUnits="userSpaceOnUse">
<stop stop-color="#FF35D8"/>
<stop offset="0.061" stop-color="#EA34D4"/>
<stop offset="0.247" stop-color="#B133CA"/>
<stop offset="0.427" stop-color="#8131C2"/>
<stop offset="0.597" stop-color="#5C30BB"/>
<stop offset="0.753" stop-color="#4130B7"/>
<stop offset="0.893" stop-color="#312FB4"/>
<stop offset="1" stop-color="#2B2FB3"/>
</linearGradient>
<linearGradient id="paint3_linear_25_1069" x1="6.65975" y1="2.25885" x2="69.1164" y2="64.7155" gradientUnits="userSpaceOnUse">
<stop stop-color="#FF35D8"/>
<stop offset="0.061" stop-color="#EA34D4"/>
<stop offset="0.247" stop-color="#B133CA"/>
<stop offset="0.427" stop-color="#8131C2"/>
<stop offset="0.597" stop-color="#5C30BB"/>
<stop offset="0.753" stop-color="#4130B7"/>
<stop offset="0.893" stop-color="#312FB4"/>
<stop offset="1" stop-color="#2B2FB3"/>
</linearGradient>
<linearGradient id="paint4_linear_25_1069" x1="14.5347" y1="-5.61615" x2="76.9914" y2="56.8405" gradientUnits="userSpaceOnUse">
<stop stop-color="#FF35D8"/>
<stop offset="0.061" stop-color="#EA34D4"/>
<stop offset="0.247" stop-color="#B133CA"/>
<stop offset="0.427" stop-color="#8131C2"/>
<stop offset="0.597" stop-color="#5C30BB"/>
<stop offset="0.753" stop-color="#4130B7"/>
<stop offset="0.893" stop-color="#312FB4"/>
<stop offset="1" stop-color="#2B2FB3"/>
</linearGradient>
<linearGradient id="paint5_linear_25_1069" x1="-0.0902561" y1="9.00885" x2="62.3664" y2="71.4655" gradientUnits="userSpaceOnUse">
<stop stop-color="#FF35D8"/>
<stop offset="0.061" stop-color="#EA34D4"/>
<stop offset="0.247" stop-color="#B133CA"/>
<stop offset="0.427" stop-color="#8131C2"/>
<stop offset="0.597" stop-color="#5C30BB"/>
<stop offset="0.753" stop-color="#4130B7"/>
<stop offset="0.893" stop-color="#312FB4"/>
<stop offset="1" stop-color="#2B2FB3"/>
</linearGradient>
<linearGradient id="paint6_linear_25_1069" x1="-10.4616" y1="19.3791" x2="51.995" y2="81.8357" gradientUnits="userSpaceOnUse">
<stop stop-color="#FF35D8"/>
<stop offset="0.061" stop-color="#EA34D4"/>
<stop offset="0.247" stop-color="#B133CA"/>
<stop offset="0.427" stop-color="#8131C2"/>
<stop offset="0.597" stop-color="#5C30BB"/>
<stop offset="0.753" stop-color="#4130B7"/>
<stop offset="0.893" stop-color="#312FB4"/>
<stop offset="1" stop-color="#2B2FB3"/>
</linearGradient>
<linearGradient id="paint7_linear_25_1069" x1="10.2035" y1="-1.2849" x2="72.6601" y2="61.1717" gradientUnits="userSpaceOnUse">
<stop stop-color="#FF35D8"/>
<stop offset="0.061" stop-color="#EA34D4"/>
<stop offset="0.247" stop-color="#B133CA"/>
<stop offset="0.427" stop-color="#8131C2"/>
<stop offset="0.597" stop-color="#5C30BB"/>
<stop offset="0.753" stop-color="#4130B7"/>
<stop offset="0.893" stop-color="#312FB4"/>
<stop offset="1" stop-color="#2B2FB3"/>
</linearGradient>
</defs>
</svg>
