<svg width="72" height="73" viewBox="0 0 72 73" fill="none" xmlns="http://www.w3.org/2000/svg">
<g clip-path="url(#clip0_37_67)">
<path d="M27.2527 32.169L2.41644 46.9963C-0.805479 48.9198 -0.805479 53.5868 2.41644 55.5103L27.2528 70.3375C32.6406 73.554 39.3591 73.554 44.7469 70.3375L69.5833 55.5103C72.8052 53.5868 72.8052 48.9198 69.5833 46.9963L44.7469 32.169C39.3591 28.9526 32.6405 28.9526 27.2527 32.169Z" fill="url(#paint0_linear_37_67)"/>
<path d="M69.5828 55.5107L44.7471 70.337C41.2616 72.4187 37.1479 73.189 33.1453 72.5097C35.1938 72.1624 37.1942 71.4381 39.0394 70.337L63.8751 55.5107C63.9369 55.4738 63.9975 55.4358 64.0569 55.3969C67.5807 53.0906 64.1633 47.7524 60.5474 49.9111L44.7471 59.3436C39.3585 62.561 32.6413 62.561 27.2526 59.3436L4.49365 45.7568L27.2526 32.1686C29.0653 31.0856 31.0634 30.3489 33.1453 29.9959C37.0841 29.3296 41.2022 30.0538 44.7471 32.1686L67.5061 45.7568L69.5828 46.9964C72.8059 48.9192 72.8059 53.5864 69.5828 55.5107Z" fill="url(#paint1_linear_37_67)"/>
<path d="M27.2527 17.6657L2.41644 32.493C-0.805479 34.4165 -0.805479 39.0835 2.41644 41.007L27.2527 55.834C32.6405 59.0506 39.3589 59.0506 44.7468 55.834L69.5831 41.0069C72.8051 39.0834 72.8051 34.4164 69.5831 32.4929L44.7469 17.6657C39.3591 14.4493 32.6405 14.4493 27.2527 17.6657Z" fill="url(#paint2_linear_37_67)"/>
<path d="M69.5828 41.0075L44.7471 55.8338C41.2616 57.9155 37.1479 58.6859 33.1453 58.0065C35.1938 57.6592 37.1942 56.935 39.0394 55.8338L63.8751 41.0075C63.9369 40.9707 63.9975 40.9327 64.0569 40.8937C67.5807 38.5875 64.1633 33.2492 60.5474 35.4079L44.7471 44.8404C39.3585 48.0578 32.6413 48.0578 27.2526 44.8404L4.49365 31.2537L27.2526 17.6655C29.0653 16.5824 31.0634 15.8457 33.1453 15.4928C37.0841 14.8264 41.2022 15.5507 44.7471 17.6655L67.5061 31.2537L69.5828 32.4932C72.8059 34.416 72.8059 39.0833 69.5828 41.0075Z" fill="url(#paint3_linear_37_67)"/>
<path d="M27.2527 3.16241L2.41644 17.9896C-0.805479 19.9131 -0.805479 24.5801 2.41644 26.5036L27.2528 41.3307C32.6406 44.5473 39.3591 44.5473 44.7469 41.3307L69.5833 26.5036C72.8052 24.5801 72.8052 19.9131 69.5833 17.9896L44.7469 3.16241C39.3591 -0.0541379 32.6405 -0.0541379 27.2527 3.16241Z" fill="url(#paint4_linear_37_67)"/>
<path d="M69.5831 17.9895L44.7469 3.1624C41.2031 1.04674 37.0836 0.32307 33.1458 0.99055C35.2277 1.34323 37.226 2.07968 39.0389 3.1624L63.8752 17.9895C67.0973 19.9131 67.0973 24.5801 63.8752 26.5036L39.0389 41.3307C37.226 42.4135 35.2277 43.1499 33.1458 43.5026C37.0836 44.1701 41.2031 43.4464 44.7469 41.3307L69.5833 26.5036C72.8052 24.5801 72.8052 19.9131 69.5831 17.9895Z" fill="url(#paint5_linear_37_67)"/>
</g>
<defs>
<linearGradient id="paint0_linear_37_67" x1="-7.0588e-05" y1="51.2533" x2="71.9996" y2="51.2533" gradientUnits="userSpaceOnUse">
<stop stop-color="#FE646F"/>
<stop offset="0.121" stop-color="#FE556D"/>
<stop offset="0.352" stop-color="#FE2E69"/>
<stop offset="0.573" stop-color="#FE0364"/>
<stop offset="1" stop-color="#D2024E"/>
</linearGradient>
<linearGradient id="paint1_linear_37_67" x1="-8.2438" y1="51.2532" x2="47.9507" y2="51.2532" gradientUnits="userSpaceOnUse">
<stop stop-color="#FE646F"/>
<stop offset="0.121" stop-color="#FE556D"/>
<stop offset="0.352" stop-color="#FE2E69"/>
<stop offset="0.573" stop-color="#FE0364"/>
<stop offset="1" stop-color="#D2024E"/>
</linearGradient>
<linearGradient id="paint2_linear_37_67" x1="-7.0588e-05" y1="36.7499" x2="71.9996" y2="36.7499" gradientUnits="userSpaceOnUse">
<stop stop-color="#FE93BB"/>
<stop offset="0.559" stop-color="#925CB4"/>
<stop offset="1" stop-color="#5B3374"/>
</linearGradient>
<linearGradient id="paint3_linear_37_67" x1="-8.2438" y1="36.7499" x2="47.9507" y2="36.7499" gradientUnits="userSpaceOnUse">
<stop stop-color="#FE93BB"/>
<stop offset="0.559" stop-color="#925CB4"/>
<stop offset="1" stop-color="#5B3374"/>
</linearGradient>
<linearGradient id="paint4_linear_37_67" x1="-7.0588e-05" y1="22.2466" x2="71.9996" y2="22.2466" gradientUnits="userSpaceOnUse">
<stop stop-color="#99E6FC"/>
<stop offset="0.43" stop-color="#01D0FB"/>
<stop offset="0.526" stop-color="#08C6F7"/>
<stop offset="0.692" stop-color="#1DA9EB"/>
<stop offset="0.907" stop-color="#3F7CD9"/>
<stop offset="1" stop-color="#4F66D0"/>
</linearGradient>
<linearGradient id="paint5_linear_37_67" x1="-7.1851" y1="22.2466" x2="64.3062" y2="22.2466" gradientUnits="userSpaceOnUse">
<stop stop-color="#99E6FC"/>
<stop offset="0.43" stop-color="#01D0FB"/>
<stop offset="0.526" stop-color="#08C6F7"/>
<stop offset="0.692" stop-color="#1DA9EB"/>
<stop offset="0.907" stop-color="#3F7CD9"/>
<stop offset="1" stop-color="#4F66D0"/>
</linearGradient>
<clipPath id="clip0_37_67">
<rect width="72" height="72" fill="white" transform="translate(0 0.75)"/>
</clipPath>
</defs>
</svg>
