<svg width="73" height="79" viewBox="0 0 73 79" fill="none" xmlns="http://www.w3.org/2000/svg">
<path d="M27.3542 34.6174L2.518 50.5536C-0.703917 52.621 -0.703917 57.6371 2.518 59.7044L27.3544 75.6405C32.7422 79.0977 39.4606 79.0977 44.8485 75.6405L69.6848 59.7044C72.9068 57.6371 72.9068 52.621 69.6848 50.5536L44.8485 34.6174C39.4606 31.1604 32.7421 31.1604 27.3542 34.6174Z" fill="url(#paint0_linear_25_1032)"/>
<path d="M69.6844 59.7049L44.8487 75.6401C41.3632 77.8775 37.2495 78.7055 33.2469 77.9753C35.2953 77.602 37.2958 76.8236 39.141 75.6401L63.9766 59.7049C64.0385 59.6653 64.099 59.6245 64.1585 59.5826C67.6822 57.1039 64.2649 51.3663 60.649 53.6865L44.8487 63.8245C39.46 67.2825 32.7429 67.2825 27.3542 63.8245L4.59521 49.2215L27.3542 34.6171C29.1668 33.453 31.165 32.6612 33.2469 32.2819C37.1857 31.5657 41.3038 32.3441 44.8487 34.6171L67.6077 49.2215L69.6844 50.5538C72.9074 52.6204 72.9074 57.6368 69.6844 59.7049Z" fill="url(#paint1_linear_25_1032)"/>
<path d="M27.3542 19.0294L2.518 34.9656C-0.703917 37.033 -0.703917 42.049 2.518 44.1164L27.3542 60.0524C32.7421 63.5095 39.4605 63.5095 44.8483 60.0524L69.6847 44.1163C72.9066 42.0489 72.9066 37.0328 69.6847 34.9655L44.8485 19.0294C39.4606 15.5724 32.7421 15.5724 27.3542 19.0294Z" fill="url(#paint2_linear_25_1032)"/>
<path d="M69.6844 44.1169L44.8487 60.0521C41.3632 62.2895 37.2495 63.1175 33.2469 62.3873C35.2953 62.014 37.2958 61.2356 39.141 60.0521L63.9766 44.1169C64.0385 44.0773 64.099 44.0365 64.1585 43.9946C67.6822 41.5158 64.2649 35.7783 60.649 38.0985L44.8487 48.2365C39.46 51.6945 32.7429 51.6945 27.3542 48.2365L4.59521 33.6335L27.3542 19.0291C29.1668 17.865 31.165 17.0731 33.2469 16.6939C37.1857 15.9777 41.3038 16.7561 44.8487 19.0291L67.6077 33.6335L69.6844 34.9658C72.9074 37.0324 72.9074 42.0487 69.6844 44.1169Z" fill="url(#paint3_linear_25_1032)"/>
<path d="M27.3542 3.44134L2.518 19.3774C-0.703917 21.4448 -0.703917 26.4609 2.518 28.5283L27.3544 44.4644C32.7422 47.9215 39.4606 47.9215 44.8485 44.4644L69.6848 28.5283C72.9068 26.4609 72.9068 21.4448 69.6848 19.3774L44.8485 3.44134C39.4606 -0.0157856 32.7421 -0.0157856 27.3542 3.44134Z" fill="url(#paint4_linear_25_1032)"/>
<path d="M69.6849 19.3774L44.8487 3.44131C41.3049 1.16741 37.1854 0.389622 33.2476 1.10702C35.3295 1.48608 37.3278 2.27761 39.1407 3.44131L63.977 19.3774C67.1991 21.4448 67.1991 26.4608 63.977 28.5282L39.1407 44.4643C37.3278 45.6281 35.3295 46.4196 33.2476 46.7986C37.1854 47.516 41.3049 46.7382 44.8487 44.4643L69.6851 28.5282C72.907 26.4608 72.907 21.4448 69.6849 19.3774Z" fill="url(#paint5_linear_25_1032)"/>
<defs>
<linearGradient id="paint0_linear_25_1032" x1="0.101492" y1="55.129" x2="72.1012" y2="55.129" gradientUnits="userSpaceOnUse">
<stop stop-color="#FE646F"/>
<stop offset="0.121" stop-color="#FE556D"/>
<stop offset="0.352" stop-color="#FE2E69"/>
<stop offset="0.573" stop-color="#FE0364"/>
<stop offset="1" stop-color="#D2024E"/>
</linearGradient>
<linearGradient id="paint1_linear_25_1032" x1="-8.14224" y1="55.129" x2="48.0523" y2="55.129" gradientUnits="userSpaceOnUse">
<stop stop-color="#FE646F"/>
<stop offset="0.121" stop-color="#FE556D"/>
<stop offset="0.352" stop-color="#FE2E69"/>
<stop offset="0.573" stop-color="#FE0364"/>
<stop offset="1" stop-color="#D2024E"/>
</linearGradient>
<linearGradient id="paint2_linear_25_1032" x1="0.101492" y1="39.5409" x2="72.1012" y2="39.5409" gradientUnits="userSpaceOnUse">
<stop stop-color="#FE93BB"/>
<stop offset="0.559" stop-color="#925CB4"/>
<stop offset="1" stop-color="#5B3374"/>
</linearGradient>
<linearGradient id="paint3_linear_25_1032" x1="-8.14224" y1="39.5409" x2="48.0523" y2="39.5409" gradientUnits="userSpaceOnUse">
<stop stop-color="#FE93BB"/>
<stop offset="0.559" stop-color="#925CB4"/>
<stop offset="1" stop-color="#5B3374"/>
</linearGradient>
<linearGradient id="paint4_linear_25_1032" x1="0.101492" y1="23.9528" x2="72.1012" y2="23.9528" gradientUnits="userSpaceOnUse">
<stop stop-color="#052A34"/>
<stop offset="0.43" stop-color="#01D0FB"/>
<stop offset="0.526" stop-color="#08C6F7"/>
<stop offset="0.692" stop-color="#1DA9EB"/>
<stop offset="0.907" stop-color="#3F7CD9"/>
<stop offset="1" stop-color="#4F66D0"/>
</linearGradient>
<linearGradient id="paint5_linear_25_1032" x1="-7.08329" y1="23.9528" x2="64.408" y2="23.9528" gradientUnits="userSpaceOnUse">
<stop stop-color="#99E6FC"/>
<stop offset="0.43" stop-color="#01D0FB"/>
<stop offset="0.526" stop-color="#08C6F7"/>
<stop offset="0.692" stop-color="#1DA9EB"/>
<stop offset="0.907" stop-color="#3F7CD9"/>
<stop offset="1" stop-color="#4F66D0"/>
</linearGradient>
</defs>
</svg>
