<svg width="73" height="73" viewBox="0 0 73 73" fill="none" xmlns="http://www.w3.org/2000/svg">
<path d="M55.8269 24.8376L55.7549 24.6576L55.6709 24.5496L55.5629 24.4176L55.4549 24.3216L55.3229 24.2256L37.3229 13.4256C37.1405 13.3203 36.9336 13.2648 36.7229 13.2648C36.5123 13.2648 36.3054 13.3203 36.1229 13.4256L18.1229 24.2256L17.9909 24.3216L17.8829 24.4176L17.7749 24.5496L17.6909 24.6576L17.6189 24.8376V24.9456C17.5699 25.0446 17.5336 25.1495 17.5109 25.2576V46.8576C17.511 47.0659 17.5652 47.2705 17.6683 47.4515C17.7714 47.6324 17.9198 47.7834 18.0989 47.8896L36.0989 58.6896L36.2909 58.7736H36.3749C36.5781 58.8372 36.7958 58.8372 36.9989 58.7736H37.0829L37.2749 58.6896L55.2749 47.8896C55.463 47.7895 55.6211 47.6412 55.7328 47.4598C55.8446 47.2785 55.9061 47.0706 55.9109 46.8576V25.2576C55.9234 25.154 55.9234 25.0492 55.9109 24.9456L55.8269 24.8376ZM36.7109 15.8616L52.3829 25.2576L36.7109 34.6536L21.0389 25.2576L36.7109 15.8616ZM19.9109 27.3816L35.5109 36.7416V55.5336L19.9109 46.1736V27.3816ZM53.5109 46.1736L37.9109 55.5336V36.7416L53.5109 27.3816V46.1736ZM71.5109 31.2576H69.1109V15.4416C69.9116 15.1585 70.5864 14.6015 71.0161 13.869C71.4458 13.1365 71.6027 12.2757 71.4591 11.4387C71.3155 10.6017 70.8806 9.84246 70.2313 9.29509C69.582 8.74772 68.7602 8.4475 67.9109 8.4475C67.0617 8.4475 66.2398 8.74772 65.5906 9.29509C64.9413 9.84246 64.5064 10.6017 64.3628 11.4387C64.2192 12.2757 64.3761 13.1365 64.8058 13.869C65.2355 14.6015 65.9103 15.1585 66.7109 15.4416V23.8416C65.102 19.8391 62.7035 16.2017 59.6584 13.1463C56.6133 10.0909 52.984 7.68004 48.9869 6.05762H57.3869C57.67 6.85827 58.227 7.53308 58.9595 7.96278C59.692 8.39247 60.5528 8.54938 61.3898 8.40577C62.2268 8.26217 62.9861 7.82729 63.5335 7.17801C64.0808 6.52873 64.3811 5.70684 64.3811 4.85762C64.3811 4.00839 64.0808 3.18651 63.5335 2.53723C62.9861 1.88794 62.2268 1.45307 61.3898 1.30946C60.5528 1.16586 59.692 1.32277 58.9595 1.75246C58.227 2.18215 57.67 2.85696 57.3869 3.65762H41.5109V1.25762C41.5109 0.939357 41.3845 0.634133 41.1595 0.409089C40.9344 0.184045 40.6292 0.0576172 40.3109 0.0576172L33.1109 0.0576172C32.7927 0.0576172 32.4875 0.184045 32.2624 0.409089C32.0374 0.634133 31.9109 0.939357 31.9109 1.25762V3.65762H16.0949C15.8119 2.85696 15.2549 2.18215 14.5224 1.75246C13.7899 1.32277 12.9291 1.16586 12.0921 1.30946C11.2551 1.45307 10.4958 1.88794 9.94841 2.53723C9.40104 3.18651 9.10083 4.00839 9.10083 4.85762C9.10083 5.70684 9.40104 6.52873 9.94841 7.17801C10.4958 7.82729 11.2551 8.26217 12.0921 8.40577C12.9291 8.54938 13.7899 8.39247 14.5224 7.96278C15.2549 7.53308 15.8119 6.85827 16.0949 6.05762H24.4949C20.4946 7.67009 16.859 10.0699 13.804 13.1146C10.749 16.1593 8.33692 19.7867 6.71094 23.7816V15.4416C7.51159 15.1585 8.1864 14.6015 8.6161 13.869C9.04579 13.1365 9.2027 12.2757 9.05909 11.4387C8.91549 10.6017 8.48061 9.84246 7.83133 9.29509C7.18205 8.74772 6.36016 8.4475 5.51094 8.4475C4.66171 8.4475 3.83983 8.74772 3.19055 9.29509C2.54126 9.84246 2.10639 10.6017 1.96278 11.4387C1.81918 12.2757 1.97609 13.1365 2.40578 13.869C2.83547 14.6015 3.51028 15.1585 4.31094 15.4416V31.2576H1.91094C1.59268 31.2576 1.28745 31.384 1.06241 31.6091C0.837366 31.8341 0.710938 32.1394 0.710938 32.4576L0.710938 39.6576C0.710938 39.9759 0.837366 40.2811 1.06241 40.5061C1.28745 40.7312 1.59268 40.8576 1.91094 40.8576H4.31094V56.6736C3.51028 56.9567 2.83547 57.5137 2.40578 58.2462C1.97609 58.9787 1.81918 59.8395 1.96278 60.6765C2.10639 61.5135 2.54126 62.2728 3.19055 62.8201C3.83983 63.3675 4.66171 63.6677 5.51094 63.6677C6.36016 63.6677 7.18205 63.3675 7.83133 62.8201C8.48061 62.2728 8.91549 61.5135 9.05909 60.6765C9.2027 59.8395 9.04579 58.9787 8.6161 58.2462C8.1864 57.5137 7.51159 56.9567 6.71094 56.6736V48.2736C8.32163 52.275 10.7208 55.9116 13.7657 58.9668C16.8106 62.022 20.439 64.4334 24.4349 66.0576H16.0949C15.8119 65.257 15.2549 64.5822 14.5224 64.1525C13.7899 63.7228 12.9291 63.5659 12.0921 63.7095C11.2551 63.8531 10.4958 64.2879 9.94841 64.9372C9.40104 65.5865 9.10083 66.4084 9.10083 67.2576C9.10083 68.1068 9.40104 68.9287 9.94841 69.578C10.4958 70.2273 11.2551 70.6622 12.0921 70.8058C12.9291 70.9494 13.7899 70.7925 14.5224 70.3628C15.2549 69.9331 15.8119 69.2583 16.0949 68.4576H31.9109V70.8576C31.9109 71.1759 32.0374 71.4811 32.2624 71.7061C32.4875 71.9312 32.7927 72.0576 33.1109 72.0576H40.3109C40.6292 72.0576 40.9344 71.9312 41.1595 71.7061C41.3845 71.4811 41.5109 71.1759 41.5109 70.8576V68.4576H57.3269C57.61 69.2583 58.167 69.9331 58.8995 70.3628C59.632 70.7925 60.4928 70.9494 61.3298 70.8058C62.1668 70.6622 62.9261 70.2273 63.4735 69.578C64.0208 68.9287 64.3211 68.1068 64.3211 67.2576C64.3211 66.4084 64.0208 65.5865 63.4735 64.9372C62.9261 64.2879 62.1668 63.8531 61.3298 63.7095C60.4928 63.5659 59.632 63.7228 58.8995 64.1525C58.167 64.5822 57.61 65.257 57.3269 66.0576H48.9269C52.9294 64.4487 56.5668 62.0502 59.6223 59.0051C62.6777 55.9599 65.0885 52.3306 66.7109 48.3336V56.7336C65.9103 57.0167 65.2355 57.5737 64.8058 58.3062C64.3761 59.0387 64.2192 59.8995 64.3628 60.7365C64.5064 61.5735 64.9413 62.3328 65.5906 62.8801C66.2398 63.4275 67.0617 63.7277 67.9109 63.7277C68.7602 63.7277 69.582 63.4275 70.2313 62.8801C70.8806 62.3328 71.3155 61.5735 71.4591 60.7365C71.6027 59.8995 71.4458 59.0387 71.0161 58.3062C70.5864 57.5737 69.9116 57.0167 69.1109 56.7336V40.8576H71.5109C71.8292 40.8576 72.1344 40.7312 72.3595 40.5061C72.5845 40.2811 72.7109 39.9759 72.7109 39.6576V32.4576C72.7109 32.1394 72.5845 31.8341 72.3595 31.6091C72.1344 31.384 71.8292 31.2576 71.5109 31.2576ZM67.9109 10.8576C68.1483 10.8576 68.3803 10.928 68.5776 11.0599C68.775 11.1917 68.9288 11.3791 69.0196 11.5984C69.1104 11.8177 69.1342 12.0589 69.0879 12.2917C69.0416 12.5245 68.9273 12.7383 68.7595 12.9061C68.5916 13.074 68.3778 13.1883 68.1451 13.2346C67.9123 13.2809 67.671 13.2571 67.4517 13.1663C67.2325 13.0754 67.045 12.9216 66.9132 12.7243C66.7813 12.527 66.7109 12.295 66.7109 12.0576C66.7109 11.7394 66.8374 11.4341 67.0624 11.2091C67.2875 10.984 67.5927 10.8576 67.9109 10.8576ZM60.7109 3.65762C60.9483 3.65762 61.1803 3.728 61.3776 3.85985C61.575 3.99171 61.7288 4.17913 61.8196 4.3984C61.9104 4.61767 61.9342 4.85895 61.8879 5.09173C61.8416 5.3245 61.7273 5.53832 61.5595 5.70615C61.3916 5.87397 61.1778 5.98826 60.945 6.03456C60.7123 6.08086 60.471 6.0571 60.2517 5.96627C60.0324 5.87545 59.845 5.72164 59.7132 5.5243C59.5813 5.32696 59.5109 5.09495 59.5109 4.85762C59.5109 4.53936 59.6374 4.23413 59.8624 4.00909C60.0875 3.78405 60.3927 3.65762 60.7109 3.65762ZM34.3109 2.45762H39.1109V7.25762H34.3109V2.45762ZM12.7109 6.05762C12.4736 6.05762 12.2416 5.98724 12.0443 5.85538C11.8469 5.72352 11.6931 5.53611 11.6023 5.31684C11.5115 5.09757 11.4877 4.85629 11.534 4.62351C11.5803 4.39073 11.6946 4.17691 11.8624 4.00909C12.0302 3.84127 12.2441 3.72698 12.4768 3.68067C12.7096 3.63437 12.9509 3.65814 13.1702 3.74896C13.3894 3.83979 13.5768 3.99359 13.7087 4.19093C13.8406 4.38827 13.9109 4.62028 13.9109 4.85762C13.9109 5.17588 13.7845 5.4811 13.5595 5.70615C13.3344 5.93119 13.0292 6.05762 12.7109 6.05762ZM5.51094 10.8576C5.74828 10.8576 5.98028 10.928 6.17762 11.0599C6.37496 11.1917 6.52877 11.3791 6.61959 11.5984C6.71042 11.8177 6.73418 12.0589 6.68788 12.2917C6.64158 12.5245 6.52729 12.7383 6.35947 12.9061C6.19164 13.074 5.97782 13.1883 5.74505 13.2346C5.51227 13.2809 5.27099 13.2571 5.05172 13.1663C4.83245 13.0754 4.64503 12.9216 4.51317 12.7243C4.38132 12.527 4.31094 12.295 4.31094 12.0576C4.31094 11.7394 4.43737 11.4341 4.66241 11.2091C4.88745 10.984 5.19268 10.8576 5.51094 10.8576ZM3.11094 33.6576H7.91094V38.4576H3.11094V33.6576ZM5.51094 61.2576C5.2736 61.2576 5.04159 61.1872 4.84425 61.0554C4.64691 60.9235 4.49311 60.7361 4.40228 60.5168C4.31146 60.2976 4.28769 60.0563 4.334 59.8235C4.3803 59.5907 4.49459 59.3769 4.66241 59.2091C4.83023 59.0413 5.04405 58.927 5.27683 58.8807C5.50961 58.8344 5.75089 58.8581 5.97016 58.949C6.18943 59.0398 6.37684 59.1936 6.5087 59.3909C6.64056 59.5883 6.71094 59.8203 6.71094 60.0576C6.71094 60.3759 6.58451 60.6811 6.35947 60.9061C6.13442 61.1312 5.8292 61.2576 5.51094 61.2576ZM12.7109 68.4576C12.4736 68.4576 12.2416 68.3872 12.0443 68.2554C11.8469 68.1235 11.6931 67.9361 11.6023 67.7168C11.5115 67.4976 11.4877 67.2563 11.534 67.0235C11.5803 66.7907 11.6946 66.5769 11.8624 66.4091C12.0302 66.2413 12.2441 66.127 12.4768 66.0807C12.7096 66.0344 12.9509 66.0581 13.1702 66.149C13.3894 66.2398 13.5768 66.3936 13.7087 66.5909C13.8406 66.7883 13.9109 67.0203 13.9109 67.2576C13.9109 67.5759 13.7845 67.8811 13.5595 68.1061C13.3344 68.3312 13.0292 68.4576 12.7109 68.4576ZM39.1109 69.6576H34.3109V64.8576H39.1109V69.6576ZM60.7109 66.0576C60.9483 66.0576 61.1803 66.128 61.3776 66.2599C61.575 66.3917 61.7288 66.5791 61.8196 66.7984C61.9104 67.0177 61.9342 67.2589 61.8879 67.4917C61.8416 67.7245 61.7273 67.9383 61.5595 68.1061C61.3916 68.274 61.1778 68.3883 60.945 68.4346C60.7123 68.4809 60.471 68.4571 60.2517 68.3663C60.0324 68.2755 59.845 68.1216 59.7132 67.9243C59.5813 67.727 59.5109 67.495 59.5109 67.2576C59.5109 66.9394 59.6374 66.6341 59.8624 66.4091C60.0875 66.184 60.3927 66.0576 60.7109 66.0576ZM41.5109 65.6496V63.6576C41.5109 63.3394 41.3845 63.0341 41.1595 62.8091C40.9344 62.584 40.6292 62.4576 40.3109 62.4576H33.1109C32.7927 62.4576 32.4875 62.584 32.2624 62.8091C32.0374 63.0341 31.9109 63.3394 31.9109 63.6576V65.6496C25.6869 64.6721 19.9334 61.7452 15.4784 57.2902C11.0234 52.8351 8.0965 47.0817 7.11894 40.8576H9.11094C9.4292 40.8576 9.73442 40.7312 9.95947 40.5061C10.1845 40.2811 10.3109 39.9759 10.3109 39.6576V32.4576C10.3109 32.1394 10.1845 31.8341 9.95947 31.6091C9.73442 31.384 9.4292 31.2576 9.11094 31.2576H7.11894C8.0965 25.0336 11.0234 19.2801 15.4784 14.8251C19.9334 10.3701 25.6869 7.44318 31.9109 6.46562V8.45762C31.9109 8.77588 32.0374 9.0811 32.2624 9.30615C32.4875 9.53119 32.7927 9.65762 33.1109 9.65762H40.3109C40.6292 9.65762 40.9344 9.53119 41.1595 9.30615C41.3845 9.0811 41.5109 8.77588 41.5109 8.45762V6.46562C47.7083 7.50683 53.4269 10.4544 57.8705 14.8981C62.3141 19.3417 65.2617 25.0602 66.3029 31.2576H64.3109C63.9927 31.2576 63.6875 31.384 63.4624 31.6091C63.2374 31.8341 63.1109 32.1394 63.1109 32.4576V39.6576C63.1109 39.9759 63.2374 40.2811 63.4624 40.5061C63.6875 40.7312 63.9927 40.8576 64.3109 40.8576H66.3029C65.2617 47.055 62.3141 52.7736 57.8705 57.2172C53.4269 61.6608 47.7083 64.6084 41.5109 65.6496ZM67.9109 61.2576C67.6736 61.2576 67.4416 61.1872 67.2443 61.0554C67.0469 60.9235 66.8931 60.7361 66.8023 60.5168C66.7115 60.2976 66.6877 60.0563 66.734 59.8235C66.7803 59.5907 66.8946 59.3769 67.0624 59.2091C67.2302 59.0413 67.4441 58.927 67.6768 58.8807C67.9096 58.8344 68.1509 58.8581 68.3702 58.949C68.5894 59.0398 68.7768 59.1936 68.9087 59.3909C69.0406 59.5883 69.1109 59.8203 69.1109 60.0576C69.1109 60.3759 68.9845 60.6811 68.7595 60.9061C68.5344 61.1312 68.2292 61.2576 67.9109 61.2576ZM70.3109 38.4576H65.5109V33.6576H70.3109V38.4576ZM23.5109 38.4576H25.9109V40.8576H23.5109V38.4576ZM49.9109 40.8576H47.5109V38.4576H49.9109V40.8576ZM28.3109 42.0576H30.7109V44.4576H28.3109V42.0576ZM45.1109 44.4576H42.7109V42.0576H45.1109V44.4576ZM37.9109 26.4576H35.5109V24.0576H37.9109V26.4576ZM30.7109 26.4576V24.0576H33.1109V26.4576H30.7109ZM42.7109 26.4576H40.3109V24.0576H42.7109V26.4576Z" fill="url(#paint0_linear_30_2180)"/>
<defs>
<linearGradient id="paint0_linear_30_2180" x1="36.7109" y1="0.0576172" x2="36.7109" y2="72.0576" gradientUnits="userSpaceOnUse">
<stop stop-color="#D471AD"/>
<stop offset="0.5" stop-color="#C7158C"/>
<stop offset="1" stop-color="#762B90"/>
</linearGradient>
</defs>
</svg>
