<svg width="72" height="73" viewBox="0 0 72 73" fill="none" xmlns="http://www.w3.org/2000/svg">
<g clip-path="url(#clip0_95_96)">
<path d="M55.116 25.53L55.044 25.35L54.96 25.242L54.852 25.11L54.744 25.014L54.612 24.918L36.612 14.118C36.4296 14.0127 36.2226 13.9572 36.012 13.9572C35.8014 13.9572 35.5944 14.0127 35.412 14.118L17.412 24.918L17.28 25.014L17.172 25.11L17.064 25.242L16.98 25.35L16.908 25.53V25.638C16.859 25.737 16.8227 25.8419 16.8 25.95V47.55C16.8 47.7583 16.8543 47.9629 16.9574 48.1439C17.0605 48.3248 17.2089 48.4758 17.388 48.582L35.388 59.382L35.58 59.466H35.664C35.8671 59.5296 36.0849 59.5296 36.288 59.466H36.372L36.564 59.382L54.564 48.582C54.7521 48.4819 54.9101 48.3336 55.0219 48.1522C55.1337 47.9708 55.1951 47.763 55.2 47.55V25.95C55.2125 25.8464 55.2125 25.7416 55.2 25.638L55.116 25.53ZM36 16.554L51.672 25.95L36 35.346L20.328 25.95L36 16.554ZM19.2 28.074L34.8 37.434V56.226L19.2 46.866V28.074ZM52.8 46.866L37.2 56.226V37.434L52.8 28.074V46.866ZM70.8 31.95H68.4V16.134C69.2007 15.8509 69.8755 15.2939 70.3052 14.5614C70.7349 13.8289 70.8918 12.9681 70.7482 12.1311C70.6046 11.2941 70.1697 10.5348 69.5204 9.98747C68.8711 9.4401 68.0492 9.13989 67.2 9.13989C66.3508 9.13989 65.5289 9.4401 64.8796 9.98747C64.2303 10.5348 63.7955 11.2941 63.6518 12.1311C63.5082 12.9681 63.6652 13.8289 64.0948 14.5614C64.5245 15.2939 65.1993 15.8509 66 16.134V24.534C64.3911 20.5315 61.9926 16.8941 58.9474 13.8387C55.9023 10.7832 52.273 8.37242 48.276 6.75H56.676C56.9591 7.55066 57.5161 8.22547 58.2486 8.65516C58.9811 9.08485 59.8419 9.24176 60.6789 9.09816C61.5159 8.95455 62.2752 8.51967 62.8225 7.87039C63.3699 7.22111 63.6701 6.39922 63.6701 5.55C63.6701 4.70078 63.3699 3.87889 62.8225 3.22961C62.2752 2.58033 61.5159 2.14545 60.6789 2.00185C59.8419 1.85824 58.9811 2.01515 58.2486 2.44484C57.5161 2.87453 56.9591 3.54934 56.676 4.35H40.8V1.95C40.8 1.63174 40.6736 1.32652 40.4485 1.10147C40.2235 0.876428 39.9183 0.75 39.6 0.75H32.4C32.0817 0.75 31.7765 0.876428 31.5515 1.10147C31.3264 1.32652 31.2 1.63174 31.2 1.95V4.35H15.384C15.1009 3.54934 14.5439 2.87453 13.8114 2.44484C13.0789 2.01515 12.2181 1.85824 11.3811 2.00185C10.5441 2.14545 9.78484 2.58033 9.23747 3.22961C8.6901 3.87889 8.38989 4.70078 8.38989 5.55C8.38989 6.39922 8.6901 7.22111 9.23747 7.87039C9.78484 8.51967 10.5441 8.95455 11.3811 9.09816C12.2181 9.24176 13.0789 9.08485 13.8114 8.65516C14.5439 8.22547 15.1009 7.55066 15.384 6.75H23.784C19.7836 8.36247 16.148 10.7623 13.0931 13.807C10.0381 16.8516 7.62598 20.4791 6 24.474V16.134C6.80066 15.8509 7.47547 15.2939 7.90516 14.5614C8.33485 13.8289 8.49176 12.9681 8.34816 12.1311C8.20455 11.2941 7.76967 10.5348 7.12039 9.98747C6.47111 9.4401 5.64922 9.13989 4.8 9.13989C3.95078 9.13989 3.12889 9.4401 2.47961 9.98747C1.83033 10.5348 1.39545 11.2941 1.25185 12.1311C1.10824 12.9681 1.26515 13.8289 1.69484 14.5614C2.12453 15.2939 2.79934 15.8509 3.6 16.134V31.95H1.2C0.88174 31.95 0.576516 32.0764 0.351472 32.3015C0.126428 32.5265 0 32.8317 0 33.15L0 40.35C0 40.6683 0.126428 40.9735 0.351472 41.1985C0.576516 41.4236 0.88174 41.55 1.2 41.55H3.6V57.366C2.79934 57.6491 2.12453 58.2061 1.69484 58.9386C1.26515 59.6711 1.10824 60.5319 1.25185 61.3689C1.39545 62.2059 1.83033 62.9652 2.47961 63.5125C3.12889 64.0599 3.95078 64.3601 4.8 64.3601C5.64922 64.3601 6.47111 64.0599 7.12039 63.5125C7.76967 62.9652 8.20455 62.2059 8.34816 61.3689C8.49176 60.5319 8.33485 59.6711 7.90516 58.9386C7.47547 58.2061 6.80066 57.6491 6 57.366V48.966C7.61069 52.9674 10.0099 56.6039 13.0548 59.6591C16.0997 62.7143 19.728 65.1258 23.724 66.75H15.384C15.1009 65.9493 14.5439 65.2745 13.8114 64.8448C13.0789 64.4152 12.2181 64.2582 11.3811 64.4018C10.5441 64.5455 9.78484 64.9803 9.23747 65.6296C8.6901 66.2789 8.38989 67.1008 8.38989 67.95C8.38989 68.7992 8.6901 69.6211 9.23747 70.2704C9.78484 70.9197 10.5441 71.3546 11.3811 71.4982C12.2181 71.6418 13.0789 71.4849 13.8114 71.0552C14.5439 70.6255 15.1009 69.9507 15.384 69.15H31.2V71.55C31.2 71.8683 31.3264 72.1735 31.5515 72.3985C31.7765 72.6236 32.0817 72.75 32.4 72.75H39.6C39.9183 72.75 40.2235 72.6236 40.4485 72.3985C40.6736 72.1735 40.8 71.8683 40.8 71.55V69.15H56.616C56.8991 69.9507 57.4561 70.6255 58.1886 71.0552C58.9211 71.4849 59.7819 71.6418 60.6189 71.4982C61.4559 71.3546 62.2152 70.9197 62.7625 70.2704C63.3099 69.6211 63.6101 68.7992 63.6101 67.95C63.6101 67.1008 63.3099 66.2789 62.7625 65.6296C62.2152 64.9803 61.4559 64.5455 60.6189 64.4018C59.7819 64.2582 58.9211 64.4152 58.1886 64.8448C57.4561 65.2745 56.8991 65.9493 56.616 66.75H48.216C52.2185 65.1411 55.8559 62.7426 58.9113 59.6974C61.9668 56.6523 64.3776 53.023 66 49.026V57.426C65.1993 57.7091 64.5245 58.2661 64.0948 58.9986C63.6652 59.7311 63.5082 60.5919 63.6518 61.4289C63.7955 62.2659 64.2303 63.0252 64.8796 63.5725C65.5289 64.1199 66.3508 64.4201 67.2 64.4201C68.0492 64.4201 68.8711 64.1199 69.5204 63.5725C70.1697 63.0252 70.6046 62.2659 70.7482 61.4289C70.8918 60.5919 70.7349 59.7311 70.3052 58.9986C69.8755 58.2661 69.2007 57.7091 68.4 57.426V41.55H70.8C71.1183 41.55 71.4235 41.4236 71.6485 41.1985C71.8736 40.9735 72 40.6683 72 40.35V33.15C72 32.8317 71.8736 32.5265 71.6485 32.3015C71.4235 32.0764 71.1183 31.95 70.8 31.95ZM67.2 11.55C67.4373 11.55 67.6693 11.6204 67.8667 11.7522C68.064 11.8841 68.2178 12.0715 68.3087 12.2908C68.3995 12.5101 68.4232 12.7513 68.3769 12.9841C68.3306 13.2169 68.2164 13.4307 68.0485 13.5985C67.8807 13.7664 67.6669 13.8806 67.4341 13.9269C67.2013 13.9732 66.9601 13.9495 66.7408 13.8587C66.5215 13.7678 66.3341 13.614 66.2022 13.4167C66.0704 13.2193 66 12.9873 66 12.75C66 12.4317 66.1264 12.1265 66.3515 11.9015C66.5765 11.6764 66.8817 11.55 67.2 11.55ZM60 4.35C60.2373 4.35 60.4693 4.42038 60.6667 4.55224C60.864 4.68409 61.0178 4.87151 61.1087 5.09078C61.1995 5.31005 61.2232 5.55133 61.1769 5.78411C61.1306 6.01689 61.0164 6.23071 60.8485 6.39853C60.6807 6.56635 60.4669 6.68064 60.2341 6.72694C60.0013 6.77324 59.7601 6.74948 59.5408 6.65866C59.3215 6.56783 59.1341 6.41402 59.0022 6.21668C58.8704 6.01935 58.8 5.78734 58.8 5.55C58.8 5.23174 58.9264 4.92652 59.1515 4.70147C59.3765 4.47643 59.6817 4.35 60 4.35ZM33.6 3.15H38.4V7.95H33.6V3.15ZM12 6.75C11.7627 6.75 11.5307 6.67962 11.3333 6.54776C11.136 6.41591 10.9822 6.22849 10.8913 6.00922C10.8005 5.78995 10.7768 5.54867 10.8231 5.31589C10.8694 5.08311 10.9836 4.86929 11.1515 4.70147C11.3193 4.53365 11.5331 4.41936 11.7659 4.37306C11.9987 4.32676 12.2399 4.35052 12.4592 4.44134C12.6785 4.53217 12.8659 4.68598 12.9978 4.88332C13.1296 5.08066 13.2 5.31266 13.2 5.55C13.2 5.86826 13.0736 6.17348 12.8485 6.39853C12.6235 6.62357 12.3183 6.75 12 6.75ZM4.8 11.55C5.03734 11.55 5.26935 11.6204 5.46668 11.7522C5.66402 11.8841 5.81783 12.0715 5.90866 12.2908C5.99948 12.5101 6.02324 12.7513 5.97694 12.9841C5.93064 13.2169 5.81635 13.4307 5.64853 13.5985C5.48071 13.7664 5.26689 13.8806 5.03411 13.9269C4.80133 13.9732 4.56005 13.9495 4.34078 13.8587C4.12151 13.7678 3.93409 13.614 3.80224 13.4167C3.67038 13.2193 3.6 12.9873 3.6 12.75C3.6 12.4317 3.72643 12.1265 3.95147 11.9015C4.17652 11.6764 4.48174 11.55 4.8 11.55ZM2.4 34.35H7.2V39.15H2.4V34.35ZM4.8 61.95C4.56266 61.95 4.33066 61.8796 4.13332 61.7478C3.93598 61.6159 3.78217 61.4285 3.69134 61.2092C3.60052 60.99 3.57676 60.7487 3.62306 60.5159C3.66936 60.2831 3.78365 60.0693 3.95147 59.9015C4.11929 59.7337 4.33311 59.6194 4.56589 59.5731C4.79867 59.5268 5.03995 59.5505 5.25922 59.6413C5.47849 59.7322 5.66591 59.886 5.79776 60.0833C5.92962 60.2807 6 60.5127 6 60.75C6 61.0683 5.87357 61.3735 5.64853 61.5985C5.42348 61.8236 5.11826 61.95 4.8 61.95ZM12 69.15C11.7627 69.15 11.5307 69.0796 11.3333 68.9478C11.136 68.8159 10.9822 68.6285 10.8913 68.4092C10.8005 68.19 10.7768 67.9487 10.8231 67.7159C10.8694 67.4831 10.9836 67.2693 11.1515 67.1015C11.3193 66.9337 11.5331 66.8194 11.7659 66.7731C11.9987 66.7268 12.2399 66.7505 12.4592 66.8413C12.6785 66.9322 12.8659 67.086 12.9978 67.2833C13.1296 67.4807 13.2 67.7127 13.2 67.95C13.2 68.2683 13.0736 68.5735 12.8485 68.7985C12.6235 69.0236 12.3183 69.15 12 69.15ZM38.4 70.35H33.6V65.55H38.4V70.35ZM60 66.75C60.2373 66.75 60.4693 66.8204 60.6667 66.9522C60.864 67.0841 61.0178 67.2715 61.1087 67.4908C61.1995 67.7101 61.2232 67.9513 61.1769 68.1841C61.1306 68.4169 61.0164 68.6307 60.8485 68.7985C60.6807 68.9664 60.4669 69.0806 60.2341 69.1269C60.0013 69.1732 59.7601 69.1495 59.5408 69.0587C59.3215 68.9678 59.1341 68.814 59.0022 68.6167C58.8704 68.4193 58.8 68.1873 58.8 67.95C58.8 67.6317 58.9264 67.3265 59.1515 67.1015C59.3765 66.8764 59.6817 66.75 60 66.75ZM40.8 66.342V64.35C40.8 64.0317 40.6736 63.7265 40.4485 63.5015C40.2235 63.2764 39.9183 63.15 39.6 63.15H32.4C32.0817 63.15 31.7765 63.2764 31.5515 63.5015C31.3264 63.7265 31.2 64.0317 31.2 64.35V66.342C24.976 65.3644 19.2225 62.4376 14.7675 57.9825C10.3124 53.5275 7.38557 47.774 6.408 41.55H8.4C8.71826 41.55 9.02348 41.4236 9.24853 41.1985C9.47357 40.9735 9.6 40.6683 9.6 40.35V33.15C9.6 32.8317 9.47357 32.5265 9.24853 32.3015C9.02348 32.0764 8.71826 31.95 8.4 31.95H6.408C7.38557 25.726 10.3124 19.9725 14.7675 15.5175C19.2225 11.0624 24.976 8.13557 31.2 7.158V9.15C31.2 9.46826 31.3264 9.77348 31.5515 9.99853C31.7765 10.2236 32.0817 10.35 32.4 10.35H39.6C39.9183 10.35 40.2235 10.2236 40.4485 9.99853C40.6736 9.77348 40.8 9.46826 40.8 9.15V7.158C46.9974 8.19921 52.7159 11.1468 57.1596 15.5904C61.6032 20.0341 64.5508 25.7526 65.592 31.95H63.6C63.2817 31.95 62.9765 32.0764 62.7515 32.3015C62.5264 32.5265 62.4 32.8317 62.4 33.15V40.35C62.4 40.6683 62.5264 40.9735 62.7515 41.1985C62.9765 41.4236 63.2817 41.55 63.6 41.55H65.592C64.5508 47.7474 61.6032 53.4659 57.1596 57.9096C52.7159 62.3532 46.9974 65.3008 40.8 66.342ZM67.2 61.95C66.9627 61.95 66.7307 61.8796 66.5333 61.7478C66.336 61.6159 66.1822 61.4285 66.0913 61.2092C66.0005 60.99 65.9768 60.7487 66.0231 60.5159C66.0694 60.2831 66.1837 60.0693 66.3515 59.9015C66.5193 59.7337 66.7331 59.6194 66.9659 59.5731C67.1987 59.5268 67.44 59.5505 67.6592 59.6413C67.8785 59.7322 68.0659 59.886 68.1978 60.0833C68.3296 60.2807 68.4 60.5127 68.4 60.75C68.4 61.0683 68.2736 61.3735 68.0485 61.5985C67.8235 61.8236 67.5183 61.95 67.2 61.95ZM69.6 39.15H64.8V34.35H69.6V39.15ZM22.8 39.15H25.2V41.55H22.8V39.15ZM49.2 41.55H46.8V39.15H49.2V41.55ZM27.6 42.75H30V45.15H27.6V42.75ZM44.4 45.15H42V42.75H44.4V45.15ZM37.2 27.15H34.8V24.75H37.2V27.15ZM30 27.15V24.75H32.4V27.15H30ZM42 27.15H39.6V24.75H42V27.15Z" fill="url(#paint0_linear_95_96)"/>
</g>
<defs>
<linearGradient id="paint0_linear_95_96" x1="36" y1="0.75" x2="36" y2="72.75" gradientUnits="userSpaceOnUse">
<stop stop-color="#D471AD"/>
<stop offset="0.5" stop-color="#C7158C"/>
<stop offset="1" stop-color="#762B90"/>
</linearGradient>
<clipPath id="clip0_95_96">
<rect width="72" height="72" fill="white" transform="translate(0 0.75)"/>
</clipPath>
</defs>
</svg>
