<svg width="72" height="73" viewBox="0 0 72 73" fill="none" xmlns="http://www.w3.org/2000/svg">
<g clip-path="url(#clip0_94_79)">
<path d="M68.4201 46.3428H29.9872C28.01 46.3428 26.4072 44.74 26.4072 42.7628V4.32995C26.4072 2.35278 28.01 0.75 29.9872 0.75H68.4201C70.3973 0.75 72 2.35278 72 4.32995V42.7628C72 44.74 70.3973 46.3428 68.4201 46.3428Z" fill="url(#paint0_linear_94_79)"/>
<path d="M26.4072 19.9355V42.7628C26.4072 44.74 28.01 46.3427 29.9872 46.3427H68.4201C70.3973 46.3427 72 44.74 72 42.7628V19.9355H26.4072Z" fill="url(#paint1_linear_94_79)"/>
<path d="M57.4968 14.7739V46.3428H68.4201C70.3972 46.3428 72 44.74 72 42.7629V29.2771L57.4968 14.7739Z" fill="url(#paint2_linear_94_79)"/>
<path d="M55.2164 59.5463H16.7836C14.8065 59.5463 13.2037 57.9435 13.2037 55.9663V17.5336C13.2037 15.5564 14.8065 13.9536 16.7836 13.9536H55.2165C57.1937 13.9536 58.7965 15.5564 58.7965 17.5336V55.9665C58.7963 57.9435 57.1936 59.5463 55.2164 59.5463Z" fill="url(#paint3_linear_94_79)"/>
<path d="M55.2164 13.9536H26.4072V42.7628C26.4072 44.74 28.01 46.3427 29.9872 46.3427H58.7964V17.5336C58.7964 15.5564 57.1936 13.9536 55.2164 13.9536Z" fill="url(#paint4_linear_94_79)"/>
<path d="M13.2037 33.1392V55.9664C13.2037 57.9436 14.8065 59.5464 16.7836 59.5464H55.2165C57.1937 59.5464 58.7965 57.9436 58.7965 55.9664V33.1392H13.2037Z" fill="url(#paint5_linear_94_79)"/>
<path d="M44.2933 27.9774V59.5463H55.2165C57.1937 59.5463 58.7965 57.9435 58.7965 55.9664V42.4806L44.2933 27.9774Z" fill="url(#paint6_linear_94_79)"/>
<path d="M42.0128 72.75H3.57995C1.60278 72.75 0 71.1473 0 69.1701V30.7372C0 28.76 1.60278 27.1572 3.57995 27.1572H42.0128C43.99 27.1572 45.5928 28.76 45.5928 30.7372V69.1701C45.5928 71.1473 43.99 72.75 42.0128 72.75Z" fill="url(#paint7_linear_94_79)"/>
<path d="M0 46.3428V69.17C0 71.1472 1.60278 72.75 3.57995 72.75H42.0128C43.99 72.75 45.5928 71.1472 45.5928 69.17V46.3428H0Z" fill="url(#paint8_linear_94_79)"/>
<path d="M42.0129 27.1572H13.2037V55.9664C13.2037 57.9436 14.8065 59.5464 16.7836 59.5464H45.5928V30.7372C45.5928 28.76 43.99 27.1572 42.0129 27.1572Z" fill="url(#paint9_linear_94_79)"/>
<path d="M45.5928 30.7372C45.5928 28.76 43.9901 27.1572 42.0129 27.1572H26.4072V42.7629C26.4072 44.7401 28.01 46.3428 29.9872 46.3428H45.5928V30.7372Z" fill="url(#paint10_linear_94_79)"/>
</g>
<defs>
<linearGradient id="paint0_linear_94_79" x1="33.6384" y1="7.9812" x2="66.843" y2="41.1858" gradientUnits="userSpaceOnUse">
<stop stop-color="#FEE45A"/>
<stop offset="1" stop-color="#FEA613"/>
</linearGradient>
<linearGradient id="paint1_linear_94_79" x1="49.2037" y1="34.5566" x2="49.2037" y2="46.2031" gradientUnits="userSpaceOnUse">
<stop stop-color="#FEA613" stop-opacity="0"/>
<stop offset="1" stop-color="#E94444"/>
</linearGradient>
<linearGradient id="paint2_linear_94_79" x1="68.8521" y1="32.098" x2="52.1932" y2="29.8392" gradientUnits="userSpaceOnUse">
<stop stop-color="#FEA613" stop-opacity="0"/>
<stop offset="1" stop-color="#E94444"/>
</linearGradient>
<linearGradient id="paint3_linear_94_79" x1="22.2793" y1="23.0293" x2="54.472" y2="55.2219" gradientUnits="userSpaceOnUse">
<stop stop-color="#FEAEE1"/>
<stop offset="1" stop-color="#FE2AA8"/>
</linearGradient>
<linearGradient id="paint4_linear_94_79" x1="17.6842" y1="5.23046" x2="56.0287" y2="43.5751" gradientUnits="userSpaceOnUse">
<stop stop-color="#FEA613" stop-opacity="0"/>
<stop offset="1" stop-color="#E94444"/>
</linearGradient>
<linearGradient id="paint5_linear_94_79" x1="36" y1="47.7604" x2="36" y2="59.4069" gradientUnits="userSpaceOnUse">
<stop stop-color="#FE0364" stop-opacity="0"/>
<stop offset="0.398" stop-color="#F70360" stop-opacity="0.398"/>
<stop offset="0.97" stop-color="#E40257" stop-opacity="0.97"/>
<stop offset="1" stop-color="#E30256"/>
</linearGradient>
<linearGradient id="paint6_linear_94_79" x1="55.6484" y1="45.3016" x2="38.9896" y2="43.0428" gradientUnits="userSpaceOnUse">
<stop stop-color="#A72B2B" stop-opacity="0"/>
<stop offset="1" stop-color="#42210B"/>
</linearGradient>
<linearGradient id="paint7_linear_94_79" x1="5.52056" y1="32.6778" x2="45.5139" y2="72.6711" gradientUnits="userSpaceOnUse">
<stop stop-color="#B3DAFE"/>
<stop offset="1" stop-color="#0182FC"/>
</linearGradient>
<linearGradient id="paint8_linear_94_79" x1="22.7965" y1="60.9639" x2="22.7965" y2="72.6104" gradientUnits="userSpaceOnUse">
<stop stop-color="#0182FC" stop-opacity="0"/>
<stop offset="1" stop-color="#024C67"/>
</linearGradient>
<linearGradient id="paint9_linear_94_79" x1="8.58382" y1="22.5374" x2="53.7476" y2="67.7011" gradientUnits="userSpaceOnUse">
<stop stop-color="#FE0364" stop-opacity="0"/>
<stop offset="0.398" stop-color="#F70360" stop-opacity="0.398"/>
<stop offset="0.97" stop-color="#E40257" stop-opacity="0.97"/>
<stop offset="1" stop-color="#E30256"/>
</linearGradient>
<linearGradient id="paint10_linear_94_79" x1="20.3736" y1="21.1236" x2="40.7725" y2="41.5225" gradientUnits="userSpaceOnUse">
<stop stop-color="#FE0364" stop-opacity="0"/>
<stop offset="0.398" stop-color="#F70360" stop-opacity="0.398"/>
<stop offset="0.97" stop-color="#E40257" stop-opacity="0.97"/>
<stop offset="1" stop-color="#E30256"/>
</linearGradient>
<clipPath id="clip0_94_79">
<rect width="72" height="72" fill="white" transform="translate(0 0.75)"/>
</clipPath>
</defs>
</svg>
